<svg width="1057" height="1524" viewBox="0 0 1057 1524" fill="none" xmlns="http://www.w3.org/2000/svg">
<path d="M155 943C155 808.5 155 804.317 155 175H750.5L155 797L416.258 538.655L488.879 599.827L561.5 661M155 943C155 1077.5 251.758 1285 532.758 1285M155 943C364.006 741.4 420.591 691 422.758 691M561.5 661L901.5 328C901.5 328 901.5 888 901.5 944.5C800.331 863 791.5 852.5 561.5 661Z" stroke="white" stroke-width="20"/>
<path d="M902 945C901.416 1072.83 807.953 1286.11 530 1284.84" stroke="white" stroke-width="20"/>
<path d="M416 689C732.033 954.663 849.837 1059.69 868 1079" stroke="white" stroke-width="20"/>
<circle cx="901.5" cy="254.5" r="12.5" fill="white"/>
<path d="M299.06 1404.33C295.21 1404.33 291.837 1403.58 288.94 1402.07C286.08 1400.53 283.843 1398.43 282.23 1395.75C280.617 1393.07 279.81 1390.01 279.81 1386.56V1365.5H289.27V1386.29C289.27 1388.2 289.692 1389.88 290.535 1391.35C291.378 1392.82 292.533 1393.97 294 1394.81C295.503 1395.62 297.19 1396.02 299.06 1396.02C301.003 1396.02 302.727 1395.62 304.23 1394.81C305.77 1393.97 306.98 1392.82 307.86 1391.35C308.74 1389.88 309.18 1388.2 309.18 1386.29V1365.5H318.31V1386.56C318.31 1390.01 317.503 1393.07 315.89 1395.75C314.277 1398.43 312.022 1400.53 309.125 1402.07C306.228 1403.58 302.873 1404.33 299.06 1404.33ZM334.281 1404V1365.5H355.236C358.132 1365.5 360.626 1366.01 362.716 1367.04C364.842 1368.07 366.474 1369.5 367.611 1371.33C368.784 1373.16 369.371 1375.31 369.371 1377.76C369.371 1380.26 368.747 1382.48 367.501 1384.42C366.254 1386.36 364.549 1387.9 362.386 1389.04C360.259 1390.14 357.876 1390.69 355.236 1390.69H343.191V1404H334.281ZM360.626 1404L348.471 1386.62L358.206 1385.24L371.461 1404H360.626ZM343.191 1383.54H354.246C355.272 1383.54 356.226 1383.32 357.106 1382.88C357.986 1382.44 358.682 1381.82 359.196 1381.01C359.709 1380.2 359.966 1379.3 359.966 1378.31C359.966 1377.29 359.691 1376.41 359.141 1375.67C358.627 1374.9 357.912 1374.32 356.996 1373.91C356.079 1373.51 355.052 1373.31 353.916 1373.31H343.191V1383.54ZM385.413 1404V1365.5H393.773L410.383 1387.55L404.883 1387.5L421.493 1365.5H429.743V1404H420.668V1391.62C420.668 1388.51 420.742 1385.61 420.888 1382.93C421.035 1380.26 421.328 1377.56 421.768 1374.85L422.703 1377.87L409.393 1394.65H405.763L392.343 1377.82L393.388 1374.85C393.828 1377.53 394.122 1380.2 394.268 1382.88C394.415 1385.52 394.488 1388.43 394.488 1391.62V1404H385.413ZM446.658 1404V1395.86H455.898V1373.64H446.658V1365.5H474.598V1373.64H465.248V1395.86H474.598V1404H446.658ZM501.888 1404V1373.75H487.698V1365.5H525.758V1373.75H511.238V1404H501.888ZM563.895 1404V1365.5H585.455C587.985 1365.5 590.258 1366.05 592.275 1367.15C594.328 1368.25 595.942 1369.75 597.115 1371.66C598.325 1373.57 598.93 1375.71 598.93 1378.09C598.93 1380.66 598.288 1382.97 597.005 1385.02C595.722 1387.04 594.017 1388.64 591.89 1389.81C589.763 1390.95 587.343 1391.51 584.63 1391.51H573.245V1404H563.895ZM573.08 1383.32H583.035C584.172 1383.32 585.198 1383.1 586.115 1382.66C587.032 1382.22 587.765 1381.61 588.315 1380.84C588.865 1380.07 589.14 1379.21 589.14 1378.26C589.14 1377.31 588.865 1376.5 588.315 1375.84C587.765 1375.18 587.032 1374.67 586.115 1374.3C585.198 1373.93 584.172 1373.75 583.035 1373.75H573.08V1383.32ZM603.779 1404L621.819 1365.5H630.399L648.329 1404H638.704L628.474 1382.11C628.144 1381.3 627.796 1380.51 627.429 1379.74C627.099 1378.97 626.788 1378.22 626.494 1377.49C626.238 1376.76 625.981 1376.02 625.724 1375.29C625.468 1374.52 625.229 1373.77 625.009 1373.03L626.989 1372.98C626.733 1373.79 626.476 1374.57 626.219 1375.34C625.963 1376.11 625.669 1376.87 625.339 1377.6C625.046 1378.33 624.734 1379.08 624.404 1379.85C624.074 1380.59 623.726 1381.36 623.359 1382.16L613.184 1404H603.779ZM612.194 1397.01L615.219 1389.97H636.779L638.484 1397.01H612.194ZM666.726 1404V1373.75H652.536V1365.5H690.596V1373.75H676.076V1404H666.726ZM703.006 1404V1365.5H735.401V1373.47H712.081V1396.02H735.951V1404H703.006ZM707.846 1388.21V1380.62H732.926V1388.21H707.846ZM750.702 1404V1365.5H760.052V1395.75H782.767V1404H750.702Z" fill="white"/>
</svg>
